#!OML:ASF F:\VICON\USERDATA\INSTALL\rory3\rory3.ASF
:FULLY-SPECIFIED
:DEGREES
1061
root 4.19246 15.9411 2.00417 23.9382 -4.13158 -2.58245
lowerback 10.0858 -0.522336 1.59055
upperback 9.57831 -0.591742 -0.898767
thorax 4.33862 -0.183591 -1.79176
lowerneck -19.3563 -0.710356 -1.91636
upperneck 38.7829 0.455864 -1.92938
head 17.5729 -0.399519 -0.454687
rclavicle -9.54166e-015 8.34896e-015
rhumerus -54.7016 70.1249 -58.1547
rradius 56.2289
rwrist -15.2112
rhand -7.34772 -40.5299
rfingers 7.12502
rthumb 18.5364 -69.6667
lclavicle -9.54166e-015 8.34896e-015
lhumerus -37.1403 -78.9861 33.5531
lradius 58.7373
lwrist 62.1797
lhand -26.0326 -27.1817
lfingers 7.12502
lthumb 0.514251 2.79738
rfemur -76.2567 -1.47445 19.5788
rtibia 37.2484
rfoot 35.6432 -1.37686
rtoes -0.173847
lfemur -57.7463 -0.49452 -26.9327
ltibia 58.9338
lfoot -23.4362 6.5108
ltoes 9.82681
1062
root 4.19085 15.9395 2.00419 23.9189 -4.14714 -2.53778
lowerback 10.1075 -0.53037 1.51493
upperback 9.57597 -0.60649 -0.900379
thorax 4.32382 -0.195289 -1.7499
lowerneck -19.2904 -0.715142 -2.01139
upperneck 38.7353 0.441409 -1.8306
head 17.5287 -0.404771 -0.39443
rclavicle -9.14409e-015 -7.95139e-015
rhumerus -54.7957 70.1858 -58.254
rradius 56.2336
rwrist -15.3341
rhand -7.64168 -40.7047
rfingers 7.12502
rthumb 18.2536 -69.8682
lclavicle -9.14409e-015 -7.95139e-015
lhumerus -37.5341 -78.975 33.9451
lradius 58.7582
lwrist 62.2913
lhand -26.4209 -27.437
lfingers 7.12502
lthumb 0.13925 2.54265
rfemur -76.2543 -1.44182 19.4844
rtibia 37.2779
rfoot 35.7236 -0.922329
rtoes -1.1071
lfemur -57.7217 -0.515879 -26.9592
ltibia 58.8943
lfoot -23.4381 6.37561
ltoes 10.3719
1063
root 4.19591 15.9427 2.00341 23.8876 -3.99577 -2.50009
lowerback 10.1106 -0.598925 1.63617
upperback 9.58821 -0.688192 -0.909596
thorax 4.33121 -0.228341 -1.82247
lowerneck -19.1769 -0.702366 -2.0247
upperneck 38.6113 0.450907 -1.8105
head 17.4303 -0.398314 -0.378587
rclavicle -1.82882e-014 1.19271e-015
rhumerus -54.8177 70.1689 -58.3125
rradius 56.1976
rwrist -15.3325
rhand -7.76298 -40.8965
rfingers 7.12502
rthumb 18.1369 -70.0709
lclavicle -1.82882e-014 1.19271e-015
lhumerus -37.3836 -78.8232 33.8392
lradius 58.6968
lwrist 62.1553
lhand -26.6456 -27.5591
lfingers 7.12502
lthumb -0.0777851 2.42063
rfemur -76.2346 -1.65494 19.5509
rtibia 37.3289
rfoot 35.5809 -1.53646
rtoes 0.82508
lfemur -57.6397 -0.666998 -26.9636
ltibia 58.8334
lfoot -23.4267 6.4341
ltoes 10.1186
1064
root 4.20486 15.9495 2.00438 23.8723 -3.84215 -2.38591
lowerback 10.0234 -0.678335 1.74207
upperback 9.60128 -0.785675 -0.94592
thorax 4.38761 -0.268453 -1.9147
lowerneck -19.0602 -0.685476 -2.03972
upperneck 38.5393 0.465858 -1.78461
head 17.3602 -0.389649 -0.359544
rclavicle 1.59028e-015 4.77083e-015
rhumerus -54.8663 70.1979 -58.3495
rradius 56.1931
rwrist -15.3123
rhand -7.44982 -40.8323
rfingers 7.12502
rthumb 18.4382 -69.9784
lclavicle 1.59028e-015 4.77083e-015
lhumerus -37.2438 -78.6829 33.7172
lradius 58.6515
lwrist 61.8607
lhand -26.477 -27.5999
lfingers 7.12502
lthumb 0.085018 2.37978
rfemur -76.2209 -1.98931 19.6273
rtibia 37.3533
rfoot 35.5675 -0.987501
rtoes 0.0488727
lfemur -57.5602 -0.880256 -27.0641
ltibia 58.7669
lfoot -23.3431 6.6062
ltoes 9.64403
1065
root 4.20409 15.9512 2.00534 23.8675 -3.89005 -2.32501
lowerback 10.0325 -0.661282 1.64816
upperback 9.58273 -0.768375 -0.96047
thorax 4.36387 -0.265048 -1.87798
lowerneck -19.0676 -0.710741 -2.13517
upperneck 38.5895 0.409913 -1.64787
head 17.3888 -0.407267 -0.292215
rclavicle 1.66979e-014 5.56597e-015
rhumerus -55.1104 70.3187 -58.532
rradius 56.2541
rwrist -15.4554
rhand -7.21802 -40.8568
rfingers 7.12502
rthumb 18.6611 -69.9817
lclavicle 1.66979e-014 5.56597e-015
lhumerus -37.3501 -78.6312 33.8236
lradius 58.6288
lwrist 61.6362
lhand -26.3961 -27.765
lfingers 7.12502
lthumb 0.163181 2.21463
rfemur -76.2062 -1.9744 19.558
rtibia 37.3347
rfoot 35.4852 -1.07208
rtoes -0.188677
lfemur -57.5458 -0.900416 -27.1249
ltibia 58.733
lfoot -23.2761 6.61941
ltoes 9.84193
1066
root 4.19828 15.9516 2.00238 23.8743 -3.97006 -2.45157
lowerback 10.1657 -0.608716 1.63437
upperback 9.5456 -0.699592 -0.923066
thorax 4.25458 -0.234653 -1.83386
lowerneck -19.0897 -0.742776 -2.2033
upperneck 38.5956 0.35285 -1.55957
head 17.3975 -0.427639 -0.25143
rclavicle 8.34896e-015 -1.59028e-015
rhumerus -55.2452 70.4245 -58.608
rradius 56.3283
rwrist -15.563
rhand -7.40561 -41.0284
rfingers 7.12502
rthumb 18.4807 -70.1705
lclavicle 8.34896e-015 -1.59028e-015
lhumerus -37.5641 -78.6244 34.0287
lradius 58.6267
lwrist 61.5725
lhand -26.4758 -27.8707
lfingers 7.12502
lthumb 0.0862403 2.10905
rfemur -76.167 -1.77245 19.6151
rtibia 37.2832
rfoot 35.598 -0.753547
rtoes -1.567
lfemur -57.5699 -0.781192 -26.987
ltibia 58.7257
lfoot -23.308 6.55248
ltoes 10.05
1067
root 4.19697 15.9517 1.99988 23.889 -3.97272 -2.52646
lowerback 10.1618 -0.596114 1.69094
upperback 9.57035 -0.680303 -0.908131
thorax 4.28409 -0.222014 -1.85153
lowerneck -19.1442 -0.728479 -2.1237
upperneck 38.5951 0.384274 -1.65351
head 17.4117 -0.416781 -0.302328
rclavicle 8.34896e-015 -4.77083e-015
rhumerus -55.0824 70.4425 -58.4331
rradius 56.3541
rwrist -15.6161
rhand -7.62469 -41.0766
rfingers 7.12502
rthumb 18.2699 -70.2386
lclavicle 8.34896e-015 -4.77083e-015
lhumerus -37.4806 -78.6349 33.9579
lradius 58.6411
lwrist 61.7535
lhand -26.322 -27.5411
lfingers 7.12502
lthumb 0.234763 2.43847
rfemur -76.1463 -1.76956 19.7638
rtibia 37.2272
rfoot 35.5169 -0.698002
rtoes -1.50732
lfemur -57.5882 -0.743556 -26.911
ltibia 58.7203
lfoot -23.3731 6.5692
ltoes 9.6981
1068
root 4.19652 15.9523 1.9989 23.891 -3.99051 -2.52232
lowerback 10.0816 -0.580465 1.66482
upperback 9.62608 -0.663012 -0.905643
thorax 4.38889 -0.21346 -1.8366
lowerneck -19.2268 -0.704919 -1.9981
upperneck 38.63 0.437672 -1.80655
head 17.4532 -0.399219 -0.384624
rclavicle -1.19271e-015 1.15295e-014
rhumerus -54.8058 70.3545 -58.1967
rradius 56.29
rwrist -15.5503
rhand -7.5315 -40.9443
rfingers 7.12502
rthumb 18.3596 -70.0979
lclavicle -1.19271e-015 1.15295e-014
lhumerus -37.1454 -78.6038 33.6915
lradius 58.6062
lwrist 61.9313
lhand -25.8879 -27.1303
lfingers 7.12502
lthumb 0.654045 2.84846
rfemur -76.1313 -1.79232 19.8159
rtibia 37.179
rfoot 35.621 -0.730409
rtoes -1.1948
lfemur -57.5959 -0.741658 -26.9146
ltibia 58.7105
lfoot -23.361 6.60684
ltoes 9.30389
1069
root 4.1961 15.9549 1.99801 23.873 -4.00433 -2.52074
lowerback 10.1025 -0.571252 1.61377
upperback 9.63237 -0.654221 -0.887629
thorax 4.38493 -0.212663 -1.78958
lowerneck -19.1895 -0.708417 -2.00888
upperneck 38.6026 0.435226 -1.80817
head 17.4285 -0.401542 -0.38332
rclavicle 1.98785e-015 1.59028e-015
rhumerus -54.7292 70.3294 -58.1365
rradius 56.2181
rwrist -15.4342
rhand -7.50727 -40.8821
rfingers 7.12502
rthumb 18.3829 -70.0334
lclavicle 1.98785e-015 1.59028e-015
lhumerus -37.1618 -78.5314 33.7871
lradius 58.5203
lwrist 61.856
lhand -25.7355 -27.2467
lfingers 7.12502
lthumb 0.801201 2.73152
rfemur -76.0998 -1.77826 19.8063
rtibia 37.1624
rfoot 35.6773 -1.07673
rtoes -0.485686
lfemur -57.5606 -0.727218 -26.9203
ltibia 58.6857
lfoot -23.3187 6.6598
ltoes 9.12551
1070
root 4.1972 15.9563 1.99784 23.8639 -3.97189 -2.56886
lowerback 10.1375 -0.586688 1.65794
upperback 9.61621 -0.671904 -0.856664
thorax 4.34765 -0.220584 -1.78049
lowerneck -19.1125 -0.716419 -2.11165
upperneck 38.5788 0.421433 -1.71525
head 17.3951 -0.408583 -0.324766
rclavicle -3.57812e-015 1.59028e-015
rhumerus -54.7514 70.3259 -58.1519
rradius 56.166
rwrist -15.3685
rhand -7.49376 -40.7963
rfingers 7.12502
rthumb 18.3959 -69.9464
lclavicle -3.57812e-015 1.59028e-015
lhumerus -37.4601 -78.5323 34.1225
lradius 58.4977
lwrist 61.7782
lhand -25.5321 -27.2238
lfingers 7.12502
lthumb 0.997647 2.75362
rfemur -76.0747 -1.81171 19.8954
rtibia 37.1693
rfoot 35.6574 -1.24058
rtoes -0.195563
lfemur -57.5265 -0.712976 -26.8768
ltibia 58.6745
lfoot -23.3545 6.66193
ltoes 9.31081
1071
root 4.20145 15.9598 1.99805 23.8665 -3.87867 -2.60393
lowerback 10.1043 -0.626735 1.78366
upperback 9.61493 -0.717448 -0.839348
thorax 4.362 -0.236481 -1.83039
lowerneck -19.1041 -0.699908 -2.12725
upperneck 38.6428 0.457305 -1.72471
head 17.4286 -0.398701 -0.319987
rclavicle -1.03368e-014 7.95139e-016
rhumerus -54.6518 70.214 -58.0681
rradius 56.0834
rwrist -15.2881
rhand -7.48927 -40.6244
rfingers 7.12502
rthumb 18.4002 -69.7742
lclavicle -1.03368e-014 7.95139e-016
lhumerus -37.5113 -78.4966 34.1869
lradius 58.5086
lwrist 61.6774
lhand -25.0721 -26.7053
lfingers 7.12502
lthumb 1.44194 3.26961
rfemur -76.0598 -1.94342 20.0319
rtibia 37.1812
rfoot 35.6647 -1.20677
rtoes -0.224666
lfemur -57.5166 -0.78842 -26.8149
ltibia 58.6716
lfoot -23.3871 6.60298
ltoes 9.66099
1072
root 4.20438 15.9599 1.99858 23.8644 -3.82688 -2.57358
lowerback 10.0637 -0.63398 1.84467
upperback 9.62071 -0.723178 -0.8621
thorax 4.38968 -0.234557 -1.88843
lowerneck -19.1292 -0.69036 -2.03326
upperneck 38.6982 0.463787 -1.7883
head 17.466 -0.391726 -0.365237
rclavicle -1.19271e-015 1.35174e-014
rhumerus -54.7204 70.1657 -58.1267
rradius 56.0502
rwrist -15.3278
rhand -7.46138 -40.4872
rfingers 7.12502
rthumb 18.427 -69.6345
lclavicle -1.19271e-015 1.35174e-014
lhumerus -37.08 -78.3668 33.7892
lradius 58.4665
lwrist 61.4074
lhand -25.0159 -26.3886
lfingers 7.12502
lthumb 1.49623 3.58588
rfemur -76.0838 -2.05214 20.0762
rtibia 37.1927
rfoot 35.7016 -0.86807
rtoes -0.673048
lfemur -57.5135 -0.861358 -26.8334
ltibia 58.6834
lfoot -23.3808 6.57702
ltoes 9.80986
1073
root 4.19833 15.9522 1.99933 23.8798 -3.96335 -2.54776
lowerback 10.0282 -0.523236 1.72097
upperback 9.65039 -0.585545 -0.901268
thorax 4.44771 -0.170996 -1.86895
lowerneck -19.1617 -0.730389 -1.92042
upperneck 38.6697 0.374494 -1.81968
head 17.4579 -0.413952 -0.416949
rclavicle -1.35174e-014 -1.11319e-014
rhumerus -54.9837 70.193 -58.3606
rradius 56.0905
rwrist -15.5275
rhand -7.37785 -40.487
rfingers 7.12502
rthumb 18.5074 -69.6265
lclavicle -1.35174e-014 -1.11319e-014
lhumerus -36.0176 -78.3067 32.7931
lradius 58.4274
lwrist 61.259
lhand -25.0834 -26.3838
lfingers 7.12502
lthumb 1.43107 3.59113
rfemur -76.1565 -1.85433 19.9121
rtibia 37.1885
rfoot 35.7173 -0.407258
rtoes -1.6165
lfemur -57.5496 -0.72613 -26.9091
ltibia 58.7251
lfoot -23.3821 6.60861
ltoes 9.83437
